<svg width="93" height="125" viewBox="0 0 93 125" fill="none" xmlns="http://www.w3.org/2000/svg">
<rect x="0.184204" width="92.0288" height="92.0288" rx="46.0144"/>
<g clip-path="url(#clip0_332_1728)">
<path d="M35.8565 17.8306C35.3919 18.0961 35.3698 18.2398 35.3588 20.2751V22.2329L29.7065 46.2356C26.2112 61.1239 24.0764 70.3932 24.0985 70.6476C24.1206 70.9241 24.2202 71.1122 24.4082 71.2559C24.6958 71.4661 34.0646 74.3309 34.4628 74.3309C34.5845 74.3309 34.8057 74.2203 34.9606 74.0765C35.1597 73.9106 37.1507 69.3645 41.8406 58.4029C45.4797 49.919 48.4773 42.9394 48.5105 42.8952C48.5768 42.8177 52.7248 52.3635 52.7248 52.5737C52.7248 52.6179 51.7071 52.6511 50.4572 52.6511C48.1897 52.6511 48.1786 52.6511 47.9132 52.9276L47.6366 53.1931V57.7835V62.3738L47.891 62.6614C48.1123 62.9158 48.5215 63.0154 53.0898 63.9335C56.5409 64.6193 58.1115 64.8958 58.2885 64.8294C58.4213 64.7741 60.6999 62.7831 63.3435 60.405C67.2591 56.8875 68.1772 56.0026 68.2989 55.6708C68.4095 55.3611 68.4316 54.7195 68.4095 53.3148L68.3652 51.3791L65.1133 37.1102L61.8613 22.8413L61.806 20.5406L61.7396 18.2288L61.4299 17.9633L61.1202 17.6979H48.599C39.385 17.7089 36.0224 17.7421 35.8565 17.8306ZM40.9999 20.5184V21.4586H39.1195H37.2391V20.5184V19.5782H39.1195H40.9999V20.5184ZM45.7562 20.5184V21.4586H44.3183H42.8803V20.5184V19.5782H44.3183H45.7562V20.5184ZM49.517 20.5184V21.4586H48.5768H47.6366V20.5184V19.5782H48.5768H49.517V20.5184ZM54.2512 20.5406L54.2844 21.4586H52.8354H51.3974V20.5184V19.5672L52.8133 19.6004L54.218 19.6336L54.2512 20.5406ZM59.9145 20.5184V21.4586H58.0341H56.1537V20.5184V19.5782H58.0341H59.9145V20.5184ZM40.9999 24.5779C40.9999 26.049 40.7787 26.6684 40.0266 27.3432C39.3961 27.9073 38.6882 28.0953 37.1617 28.0953C36.0114 28.0953 35.9007 28.0732 35.9561 27.8962C36.0224 27.6971 37.0179 23.4496 37.0179 23.3833C37.0179 23.3612 37.9139 23.339 39.0089 23.339H40.9999V24.5779ZM47.6366 31.7123V40.0967L40.7677 56.1354C36.9847 64.9511 33.8876 72.1851 33.8766 72.1961C33.8434 72.2404 26.3771 70.0171 26.2222 69.9175C26.1338 69.8733 27.5828 63.5353 30.7794 49.9411C33.3567 38.9906 35.4694 30.02 35.4694 29.9979C35.4694 29.9868 36.133 29.9757 36.9516 29.9757C39.3186 29.9757 40.281 29.6881 41.3981 28.6263C42.4821 27.5976 42.8803 26.5025 42.8803 24.5005V23.339H45.2585H47.6366V31.7123ZM51.3974 30.6726V38.0061L50.8222 38.4375C50.5015 38.6698 50.0701 38.9795 49.882 39.1344L49.517 39.3998V31.3694V23.339H50.4572H51.3974V30.6726ZM54.2844 24.8876C54.3618 26.6021 54.4503 26.956 55.0476 27.8409C55.5454 28.5931 56.1427 29.113 56.9612 29.489C57.7908 29.8651 58.5208 29.9757 60.1468 29.9757C61.5294 29.9757 61.5737 29.9868 61.629 30.2191C62.901 35.6169 66.4406 51.6998 66.4406 52.098V52.6511H60.6446H54.8485L52.4593 47.0763C51.143 44.0123 50.0701 41.4572 50.0701 41.4019C50.0811 41.3577 50.7227 40.8378 51.497 40.2626C52.2823 39.6874 53.0013 39.0791 53.1008 38.9131C53.2557 38.6587 53.2778 37.7738 53.2778 30.9712V23.328L53.7535 23.3612L54.218 23.3943L54.2844 24.8876ZM60.6003 25.6619C60.8879 26.9118 61.1202 27.9737 61.1202 28.029C61.1312 28.0732 60.4676 28.1064 59.6712 28.0732C58.2996 28.04 58.1558 28.0068 57.6138 27.7193C56.4856 27.0998 56.1537 26.3919 56.1537 24.6111V23.339L58.1115 23.3612L60.0804 23.3943L60.6003 25.6619ZM66.4406 54.808C66.4406 55.0292 65.5889 55.8478 62.0825 59.0113L57.7244 62.938L53.8641 62.1637C51.7514 61.7434 49.9042 61.3673 49.7714 61.3341L49.517 61.2788V57.9051V54.5315H57.9788H66.4406V54.808Z" fill="#8F8F8F"/>
</g>
<path d="M31.652 112.328H29.7856C29.7515 112.087 29.6819 111.872 29.5768 111.685C29.4716 111.494 29.3367 111.332 29.1719 111.199C29.0072 111.065 28.8168 110.963 28.6009 110.892C28.3878 110.821 28.1563 110.786 27.9063 110.786C27.4546 110.786 27.0611 110.898 26.7259 111.122C26.3907 111.344 26.1307 111.668 25.9461 112.094C25.7614 112.517 25.6691 113.031 25.6691 113.636C25.6691 114.259 25.7614 114.781 25.9461 115.205C26.1336 115.628 26.3949 115.947 26.7302 116.163C27.0654 116.379 27.4532 116.487 27.8935 116.487C28.1407 116.487 28.3694 116.455 28.5796 116.389C28.7927 116.324 28.9816 116.229 29.1464 116.104C29.3111 115.976 29.4475 115.821 29.5555 115.639C29.6662 115.457 29.743 115.25 29.7856 115.017L31.652 115.026C31.6037 115.426 31.483 115.812 31.2898 116.185C31.0995 116.554 30.8424 116.885 30.5185 117.178C30.1975 117.467 29.814 117.697 29.368 117.868C28.9248 118.036 28.4234 118.119 27.8637 118.119C27.0853 118.119 26.3893 117.943 25.7756 117.591C25.1648 117.239 24.6819 116.729 24.3268 116.061C23.9745 115.393 23.7984 114.585 23.7984 113.636C23.7984 112.685 23.9773 111.875 24.3353 111.207C24.6932 110.54 25.179 110.031 25.7927 109.682C26.4063 109.33 27.0966 109.153 27.8637 109.153C28.3694 109.153 28.8381 109.224 29.2699 109.366C29.7046 109.509 30.0895 109.716 30.4248 109.989C30.76 110.259 31.0327 110.589 31.243 110.982C31.456 111.374 31.5924 111.822 31.652 112.328ZM35.8076 118.124C35.39 118.124 35.0178 118.051 34.6911 117.906C34.3644 117.759 34.1059 117.541 33.9155 117.254C33.728 116.964 33.6343 116.604 33.6343 116.172C33.6343 115.808 33.701 115.503 33.8346 115.256C33.9681 115.009 34.1499 114.81 34.38 114.659C34.6101 114.509 34.8715 114.395 35.1641 114.318C35.4596 114.241 35.7692 114.188 36.0931 114.156C36.4738 114.116 36.7806 114.08 37.0135 114.045C37.2465 114.009 37.4155 113.955 37.5207 113.884C37.6258 113.812 37.6783 113.707 37.6783 113.568V113.543C37.6783 113.273 37.5931 113.064 37.4226 112.916C37.255 112.768 37.0164 112.695 36.7067 112.695C36.38 112.695 36.1201 112.767 35.9269 112.912C35.7337 113.054 35.6059 113.233 35.5434 113.449L33.8644 113.312C33.9496 112.915 34.1172 112.571 34.3672 112.281C34.6172 111.989 34.9397 111.764 35.3346 111.608C35.7323 111.449 36.1925 111.369 36.7153 111.369C37.0789 111.369 37.4269 111.412 37.7593 111.497C38.0945 111.582 38.3914 111.714 38.6499 111.893C38.9113 112.072 39.1172 112.303 39.2678 112.584C39.4184 112.862 39.4937 113.196 39.4937 113.585V118H37.7721V117.092H37.7209C37.6158 117.297 37.4752 117.477 37.2991 117.634C37.1229 117.787 36.9113 117.908 36.6641 117.996C36.417 118.081 36.1314 118.124 35.8076 118.124ZM36.3275 116.871C36.5945 116.871 36.8303 116.818 37.0349 116.713C37.2394 116.605 37.3999 116.46 37.5164 116.278C37.6329 116.097 37.6911 115.891 37.6911 115.661V114.966C37.6343 115.003 37.5562 115.037 37.4567 115.068C37.3601 115.097 37.2508 115.124 37.1286 115.149C37.0064 115.172 36.8843 115.193 36.7621 115.213C36.64 115.23 36.5292 115.246 36.4297 115.26C36.2167 115.291 36.0306 115.341 35.8715 115.409C35.7124 115.477 35.5888 115.57 35.5008 115.686C35.4127 115.8 35.3687 115.942 35.3687 116.112C35.3687 116.359 35.4582 116.548 35.6371 116.679C35.8189 116.807 36.0491 116.871 36.3275 116.871ZM43.7174 109.273V118H41.902V109.273H43.7174ZM49.129 118.128C48.4585 118.128 47.8818 117.986 47.3988 117.702C46.9187 117.415 46.5494 117.017 46.2909 116.509C46.0352 116 45.9074 115.415 45.9074 114.753C45.9074 114.082 46.0366 113.494 46.2952 112.989C46.5565 112.48 46.9273 112.084 47.4074 111.8C47.8875 111.513 48.4585 111.369 49.1204 111.369C49.6915 111.369 50.1915 111.473 50.6204 111.68C51.0494 111.888 51.3889 112.179 51.6389 112.554C51.8889 112.929 52.0267 113.369 52.0523 113.875H50.3392C50.2909 113.548 50.1631 113.286 49.9557 113.087C49.7511 112.885 49.4827 112.784 49.1503 112.784C48.869 112.784 48.6233 112.861 48.4131 113.014C48.2057 113.165 48.0437 113.385 47.9273 113.675C47.8108 113.964 47.7525 114.315 47.7525 114.727C47.7525 115.145 47.8094 115.5 47.923 115.793C48.0395 116.085 48.2028 116.308 48.4131 116.462C48.6233 116.615 48.869 116.692 49.1503 116.692C49.3577 116.692 49.5437 116.649 49.7085 116.564C49.8761 116.479 50.0139 116.355 50.1219 116.193C50.2327 116.028 50.3051 115.831 50.3392 115.601H52.0523C52.0238 116.101 51.8875 116.541 51.6432 116.922C51.4017 117.3 51.0679 117.595 50.6417 117.808C50.2156 118.021 49.7113 118.128 49.129 118.128ZM48.7028 117.966H49.5381L49.4699 118.337C49.7625 118.382 50.0011 118.491 50.1858 118.665C50.3733 118.838 50.4685 119.074 50.4713 119.372C50.4741 119.795 50.2781 120.132 49.8832 120.382C49.4883 120.635 48.9344 120.761 48.2213 120.761L48.2042 119.952C48.5622 119.952 48.842 119.908 49.0437 119.82C49.2483 119.734 49.3548 119.601 49.3633 119.419C49.369 119.246 49.3023 119.114 49.1631 119.023C49.0238 118.932 48.8065 118.868 48.5111 118.831L48.7028 117.966ZM56.081 118.124C55.6634 118.124 55.2912 118.051 54.9645 117.906C54.6378 117.759 54.3793 117.541 54.189 117.254C54.0015 116.964 53.9077 116.604 53.9077 116.172C53.9077 115.808 53.9745 115.503 54.108 115.256C54.2415 115.009 54.4234 114.81 54.6535 114.659C54.8836 114.509 55.1449 114.395 55.4376 114.318C55.733 114.241 56.0427 114.188 56.3665 114.156C56.7472 114.116 57.054 114.08 57.287 114.045C57.5199 114.009 57.689 113.955 57.7941 113.884C57.8992 113.812 57.9518 113.707 57.9518 113.568V113.543C57.9518 113.273 57.8665 113.064 57.6961 112.916C57.5285 112.768 57.2898 112.695 56.9802 112.695C56.6535 112.695 56.3935 112.767 56.2003 112.912C56.0072 113.054 55.8793 113.233 55.8168 113.449L54.1378 113.312C54.2231 112.915 54.3907 112.571 54.6407 112.281C54.8907 111.989 55.2131 111.764 55.608 111.608C56.0057 111.449 56.466 111.369 56.9887 111.369C57.3523 111.369 57.7003 111.412 58.0327 111.497C58.368 111.582 58.6648 111.714 58.9234 111.893C59.1847 112.072 59.3907 112.303 59.5412 112.584C59.6918 112.862 59.7671 113.196 59.7671 113.585V118H58.0455V117.092H57.9944C57.8893 117.297 57.7486 117.477 57.5725 117.634C57.3964 117.787 57.1847 117.908 56.9376 117.996C56.6904 118.081 56.4049 118.124 56.081 118.124ZM56.6009 116.871C56.868 116.871 57.1037 116.818 57.3083 116.713C57.5128 116.605 57.6734 116.46 57.7898 116.278C57.9063 116.097 57.9645 115.891 57.9645 115.661V114.966C57.9077 115.003 57.8296 115.037 57.7302 115.068C57.6336 115.097 57.5242 115.124 57.402 115.149C57.2799 115.172 57.1577 115.193 57.0356 115.213C56.9134 115.23 56.8026 115.246 56.7032 115.26C56.4901 115.291 56.304 115.341 56.1449 115.409C55.9859 115.477 55.8623 115.57 55.7742 115.686C55.6861 115.8 55.6421 115.942 55.6421 116.112C55.6421 116.359 55.7316 116.548 55.9106 116.679C56.0924 116.807 56.3225 116.871 56.6009 116.871ZM67.6215 113.321L65.9596 113.423C65.9312 113.281 65.8701 113.153 65.7763 113.04C65.6826 112.923 65.559 112.831 65.4056 112.763C65.255 112.692 65.0746 112.656 64.8644 112.656C64.5832 112.656 64.3459 112.716 64.1528 112.835C63.9596 112.952 63.863 113.108 63.863 113.304C63.863 113.46 63.9255 113.592 64.0505 113.7C64.1755 113.808 64.39 113.895 64.6939 113.96L65.8786 114.199C66.515 114.33 66.9894 114.54 67.3019 114.83C67.6144 115.119 67.7707 115.5 67.7707 115.972C67.7707 116.401 67.6442 116.777 67.3914 117.101C67.1414 117.425 66.7976 117.678 66.3601 117.859C65.9255 118.038 65.4241 118.128 64.8559 118.128C63.9894 118.128 63.2991 117.947 62.7849 117.587C62.2735 117.223 61.9738 116.729 61.8857 116.104L63.6712 116.01C63.7252 116.274 63.8559 116.476 64.0633 116.615C64.2707 116.751 64.5363 116.82 64.8601 116.82C65.1783 116.82 65.434 116.759 65.6272 116.636C65.8232 116.511 65.9226 116.351 65.9255 116.155C65.9226 115.99 65.853 115.855 65.7167 115.75C65.5803 115.642 65.3701 115.56 65.086 115.503L63.9525 115.277C63.3133 115.149 62.8374 114.928 62.5249 114.612C62.2153 114.297 62.0604 113.895 62.0604 113.406C62.0604 112.986 62.1741 112.624 62.4013 112.32C62.6314 112.016 62.9539 111.781 63.3687 111.616C63.7863 111.452 64.2749 111.369 64.8346 111.369C65.6613 111.369 66.3118 111.544 66.7863 111.893C67.2635 112.243 67.542 112.719 67.6215 113.321Z" fill="#474747"/>
<defs>
<clipPath id="clip0_332_1728">
<rect width="56.6331" height="56.6331"  transform="translate(17.882 17.6978)"/>
</clipPath>
</defs>
</svg>
