<svg width="135" height="144" viewBox="0 0 135 144" fill="none" xmlns="http://www.w3.org/2000/svg">
<g filter="url(#filter0_d_332_1707)">
<rect x="20" y="19" width="92.0288" height="92.0288" rx="46.0144" shape-rendering="crispEdges"/>
<g clip-path="url(#clip0_332_1707)">
<path d="M52.6304 39.0096C49.2567 40.2706 46.2149 41.4431 45.8831 41.62C44.9871 42.0736 44.0027 43.1133 43.5381 44.1088C43.0182 45.2039 37.6978 61.2204 37.6978 61.696C37.6978 62.6915 38.5274 63.8751 39.4123 64.1184C39.6446 64.1737 41.9342 64.395 44.5115 64.583L49.2014 64.948V77.5135C49.2014 88.4972 49.2235 90.1011 49.3673 90.3112C49.7102 90.7979 54.1236 92.0589 57.4198 92.6009C60.6386 93.1429 62.2646 93.2646 66.0697 93.2646C69.8747 93.2646 71.6666 93.1208 74.7527 92.6009C77.9604 92.0589 82.3296 90.7869 82.6614 90.3112C82.8052 90.1011 82.8273 88.5746 82.8273 77.5135V64.9591L87.5062 64.5941C90.0724 64.395 92.3731 64.1848 92.6164 64.1184C93.5013 63.8751 94.3309 62.7026 94.3309 61.685C94.3309 61.4859 93.0589 57.5039 91.5103 52.8471C89.4308 46.6197 88.5791 44.1973 88.2694 43.6774C87.7716 42.8368 86.8868 41.9961 86.0461 41.5758C85.7032 41.3988 82.6835 40.2374 79.332 38.9764L73.2484 36.6978H66.0033H58.7693L52.6304 39.0096ZM72.098 38.6888C72.098 39.0096 71.6224 40.2485 71.2795 40.8458C70.5494 42.0957 68.9234 43.2571 67.4413 43.6111C65.3949 44.0867 63.1938 43.4783 61.7005 41.9961C60.9705 41.2771 60.5612 40.6245 60.1851 39.6069C59.7206 38.3349 59.0348 38.4676 66.0144 38.4676C71.9763 38.4676 72.098 38.4676 72.098 38.6888ZM58.3158 39.5737C58.4154 39.9719 58.7029 40.713 58.9573 41.2329C59.3334 41.9851 59.621 42.3611 60.3732 43.1133C61.435 44.1752 62.3421 44.7504 63.6362 45.1817C64.4216 45.4472 64.687 45.4804 66.0144 45.4804C67.3417 45.4804 67.6072 45.4472 68.3925 45.1817C69.6867 44.7504 70.5937 44.1752 71.6556 43.1133C72.4077 42.3611 72.6953 41.9851 73.0714 41.2329C73.3258 40.713 73.6134 39.9609 73.7129 39.5627L73.8899 38.8326L74.6863 39.1313C75.1398 39.3083 75.4827 39.5074 75.5048 39.6069C75.5712 39.9277 74.8854 41.6864 74.3434 42.5824C71.8657 46.7303 66.6006 48.4337 62.1761 46.5201C59.6984 45.4361 57.6964 43.2792 56.8115 40.7352C56.6345 40.2153 56.5018 39.7065 56.5239 39.6069C56.546 39.5074 56.8779 39.3083 57.3314 39.1313C57.7627 38.9654 58.1167 38.8437 58.1167 38.8437C58.1278 38.8548 58.2163 39.1755 58.3158 39.5737ZM55.0417 40.9896C56.1036 44.4959 58.8467 47.2944 62.3752 48.4669C63.8796 48.9646 65.0742 49.1306 66.6117 49.0531C68.7133 48.9425 70.6379 48.312 72.3635 47.1617C74.5425 45.7127 76.2127 43.4894 76.976 41.0117C77.1198 40.5582 77.2414 40.16 77.2525 40.1489C77.3078 40.0715 85.1059 43.0469 85.482 43.2792C85.9797 43.5889 86.6324 44.319 86.8978 44.8499C87.0195 45.0822 88.3468 48.9646 89.8511 53.4887C91.7537 59.1962 92.5611 61.7845 92.5169 61.9726C92.4837 62.1164 92.351 62.2933 92.2404 62.3597C92.0523 62.4482 84.1104 63.134 83.1591 63.134H82.8273V59.9263V56.7075L82.5508 56.442C82.1968 56.077 81.688 56.077 81.3341 56.442L81.0575 56.7075V72.9563V89.2051L79.9293 89.548C77.1861 90.3887 74.4208 90.9417 71.191 91.3067C68.8239 91.5722 63.2048 91.5722 60.8377 91.3067C57.63 90.9417 55.1191 90.444 52.3317 89.6144L50.9712 89.2051V72.9563V56.7075L50.6836 56.4199C50.4513 56.1876 50.3296 56.1544 49.9978 56.2097C49.2014 56.3314 49.2014 56.3535 49.2014 59.9373V63.134H48.9028C47.9736 63.134 39.9654 62.4482 39.7884 62.3597C39.6778 62.2933 39.545 62.1164 39.5118 61.9726C39.4676 61.7845 40.2751 59.1962 42.1776 53.4887C43.6819 48.9646 45.0092 45.0822 45.1309 44.8499C45.4296 44.2526 46.1707 43.4673 46.7127 43.1907C47.1551 42.9584 54.4665 40.16 54.6767 40.1379C54.743 40.1379 54.909 40.5139 55.0417 40.9896Z" fill="#C92071"/>
</g>
</g>
<path d="M40.2261 131.328H38.3597C38.3256 131.087 38.256 130.872 38.1509 130.685C38.0457 130.494 37.9108 130.332 37.746 130.199C37.5813 130.065 37.3909 129.963 37.175 129.892C36.9619 129.821 36.7304 129.786 36.4804 129.786C36.0287 129.786 35.6352 129.898 35.3 130.122C34.9648 130.344 34.7048 130.668 34.5202 131.094C34.3355 131.517 34.2432 132.031 34.2432 132.636C34.2432 133.259 34.3355 133.781 34.5202 134.205C34.7077 134.628 34.969 134.947 35.3043 135.163C35.6395 135.379 36.0273 135.487 36.4676 135.487C36.7148 135.487 36.9435 135.455 37.1537 135.389C37.3668 135.324 37.5557 135.229 37.7205 135.104C37.8852 134.976 38.0216 134.821 38.1296 134.639C38.2403 134.457 38.3171 134.25 38.3597 134.017L40.2261 134.026C40.1778 134.426 40.0571 134.812 39.8639 135.185C39.6736 135.554 39.4165 135.885 39.0926 136.178C38.7716 136.467 38.3881 136.697 37.9421 136.868C37.4989 137.036 36.9974 137.119 36.4378 137.119C35.6594 137.119 34.9634 136.943 34.3497 136.591C33.7389 136.239 33.256 135.729 32.9009 135.061C32.5486 134.393 32.3724 133.585 32.3724 132.636C32.3724 131.685 32.5514 130.875 32.9094 130.207C33.2673 129.54 33.7531 129.031 34.3668 128.682C34.9804 128.33 35.6707 128.153 36.4378 128.153C36.9435 128.153 37.4122 128.224 37.844 128.366C38.2787 128.509 38.6636 128.716 38.9989 128.989C39.3341 129.259 39.6068 129.589 39.8171 129.982C40.0301 130.374 40.1665 130.822 40.2261 131.328ZM44.3817 137.124C43.9641 137.124 43.5919 137.051 43.2652 136.906C42.9385 136.759 42.68 136.541 42.4896 136.254C42.3021 135.964 42.2084 135.604 42.2084 135.172C42.2084 134.808 42.2751 134.503 42.4087 134.256C42.5422 134.009 42.724 133.81 42.9541 133.659C43.1842 133.509 43.4456 133.395 43.7382 133.318C44.0337 133.241 44.3433 133.188 44.6672 133.156C45.0479 133.116 45.3547 133.08 45.5876 133.045C45.8206 133.009 45.9896 132.955 46.0947 132.884C46.1999 132.812 46.2524 132.707 46.2524 132.568V132.543C46.2524 132.273 46.1672 132.064 45.9967 131.916C45.8291 131.768 45.5905 131.695 45.2808 131.695C44.9541 131.695 44.6942 131.767 44.501 131.912C44.3078 132.054 44.18 132.233 44.1175 132.449L42.4385 132.312C42.5237 131.915 42.6913 131.571 42.9413 131.281C43.1913 130.989 43.5138 130.764 43.9087 130.608C44.3064 130.449 44.7666 130.369 45.2894 130.369C45.653 130.369 46.001 130.412 46.3334 130.497C46.6686 130.582 46.9655 130.714 47.224 130.893C47.4854 131.072 47.6913 131.303 47.8419 131.584C47.9925 131.862 48.0678 132.196 48.0678 132.585V137H46.3462V136.092H46.295C46.1899 136.297 46.0493 136.477 45.8732 136.634C45.697 136.787 45.4854 136.908 45.2382 136.996C44.9911 137.081 44.7055 137.124 44.3817 137.124ZM44.9016 135.871C45.1686 135.871 45.4044 135.818 45.609 135.713C45.8135 135.605 45.974 135.46 46.0905 135.278C46.207 135.097 46.2652 134.891 46.2652 134.661V133.966C46.2084 134.003 46.1303 134.037 46.0308 134.068C45.9342 134.097 45.8249 134.124 45.7027 134.149C45.5805 134.172 45.4584 134.193 45.3362 134.213C45.2141 134.23 45.1033 134.246 45.0038 134.26C44.7908 134.291 44.6047 134.341 44.4456 134.409C44.2865 134.477 44.1629 134.57 44.0749 134.686C43.9868 134.8 43.9428 134.942 43.9428 135.112C43.9428 135.359 44.0322 135.548 44.2112 135.679C44.393 135.807 44.6232 135.871 44.9016 135.871ZM50.4761 137V130.455H52.2063V131.609H52.283C52.4193 131.226 52.6466 130.923 52.9648 130.702C53.283 130.48 53.6636 130.369 54.1068 130.369C54.5557 130.369 54.9378 130.482 55.2531 130.706C55.5685 130.928 55.7787 131.229 55.8838 131.609H55.952C56.0855 131.234 56.327 130.935 56.6764 130.71C57.0287 130.483 57.4449 130.369 57.925 130.369C58.5358 130.369 59.0315 130.564 59.4122 130.953C59.7957 131.339 59.9875 131.888 59.9875 132.598V137H58.1764V132.956C58.1764 132.592 58.0798 132.32 57.8867 132.138C57.6935 131.956 57.452 131.865 57.1622 131.865C56.8327 131.865 56.5756 131.97 56.3909 132.18C56.2063 132.388 56.1139 132.662 56.1139 133.003V137H54.354V132.918C54.354 132.597 54.2617 132.341 54.077 132.151C53.8952 131.96 53.6551 131.865 53.3568 131.865C53.1551 131.865 52.9733 131.916 52.8114 132.018C52.6523 132.118 52.5259 132.259 52.4321 132.44C52.3384 132.619 52.2915 132.83 52.2915 133.071V137H50.4761ZM62.4215 137V130.455H64.2368V137H62.4215ZM63.3334 129.611C63.0635 129.611 62.832 129.521 62.6388 129.342C62.4484 129.161 62.3533 128.943 62.3533 128.69C62.3533 128.44 62.4484 128.226 62.6388 128.047C62.832 127.865 63.0635 127.774 63.3334 127.774C63.6033 127.774 63.8334 127.865 64.0237 128.047C64.2169 128.226 64.3135 128.44 64.3135 128.69C64.3135 128.943 64.2169 129.161 64.0237 129.342C63.8334 129.521 63.6033 129.611 63.3334 129.611ZM72.137 132.321L70.4751 132.423C70.4467 132.281 70.3856 132.153 70.2918 132.04C70.1981 131.923 70.0745 131.831 69.9211 131.763C69.7705 131.692 69.5901 131.656 69.3799 131.656C69.0987 131.656 68.8614 131.716 68.6683 131.835C68.4751 131.952 68.3785 132.108 68.3785 132.304C68.3785 132.46 68.441 132.592 68.566 132.7C68.691 132.808 68.9055 132.895 69.2095 132.96L70.3941 133.199C71.0305 133.33 71.5049 133.54 71.8174 133.83C72.1299 134.119 72.2862 134.5 72.2862 134.972C72.2862 135.401 72.1597 135.777 71.9069 136.101C71.6569 136.425 71.3131 136.678 70.8756 136.859C70.441 137.038 69.9396 137.128 69.3714 137.128C68.5049 137.128 67.8146 136.947 67.3004 136.587C66.789 136.223 66.4893 135.729 66.4012 135.104L68.1867 135.01C68.2407 135.274 68.3714 135.476 68.5788 135.615C68.7862 135.751 69.0518 135.82 69.3756 135.82C69.6938 135.82 69.9495 135.759 70.1427 135.636C70.3387 135.511 70.4381 135.351 70.441 135.155C70.4381 134.99 70.3685 134.855 70.2322 134.75C70.0958 134.642 69.8856 134.56 69.6015 134.503L68.468 134.277C67.8288 134.149 67.3529 133.928 67.0404 133.612C66.7308 133.297 66.5759 132.895 66.5759 132.406C66.5759 131.986 66.6896 131.624 66.9168 131.32C67.147 131.016 67.4694 130.781 67.8842 130.616C68.3018 130.452 68.7904 130.369 69.3501 130.369C70.1768 130.369 70.8273 130.544 71.3018 130.893C71.7791 131.243 72.0575 131.719 72.137 132.321ZM77.4122 137.128C76.7389 137.128 76.1594 136.991 75.6736 136.719C75.1906 136.443 74.8185 136.054 74.5571 135.551C74.2957 135.045 74.1651 134.447 74.1651 133.757C74.1651 133.084 74.2957 132.493 74.5571 131.984C74.8185 131.476 75.1864 131.08 75.6608 130.795C76.1381 130.511 76.6977 130.369 77.3398 130.369C77.7716 130.369 78.1736 130.439 78.5457 130.578C78.9207 130.714 79.2474 130.92 79.5259 131.196C79.8071 131.472 80.0259 131.818 80.1821 132.236C80.3384 132.651 80.4165 133.136 80.4165 133.693V134.192H74.8895V133.067H78.7077C78.7077 132.805 78.6509 132.574 78.5372 132.372C78.4236 132.17 78.2659 132.013 78.0642 131.899C77.8653 131.783 77.6338 131.724 77.3696 131.724C77.094 131.724 76.8497 131.788 76.6367 131.916C76.4264 132.041 76.2617 132.21 76.1423 132.423C76.023 132.634 75.9619 132.868 75.9591 133.126V134.196C75.9591 134.52 76.0188 134.8 76.1381 135.036C76.2602 135.271 76.4321 135.453 76.6537 135.581C76.8753 135.709 77.1381 135.773 77.442 135.773C77.6438 135.773 77.8284 135.744 77.996 135.688C78.1636 135.631 78.3071 135.545 78.4264 135.432C78.5457 135.318 78.6367 135.179 78.6992 135.014L80.3781 135.125C80.2929 135.528 80.1182 135.881 79.854 136.182C79.5926 136.48 79.2545 136.713 78.8398 136.881C78.4278 137.045 77.952 137.128 77.4122 137.128ZM86.0827 130.455V131.818H82.1409V130.455H86.0827ZM83.0358 128.886H84.8511V134.989C84.8511 135.156 84.8767 135.287 84.9278 135.381C84.979 135.472 85.05 135.536 85.1409 135.572C85.2347 135.609 85.3426 135.628 85.4648 135.628C85.55 135.628 85.6352 135.621 85.7205 135.607C85.8057 135.589 85.871 135.577 85.9165 135.568L86.202 136.919C86.1111 136.947 85.9832 136.98 85.8185 137.017C85.6537 137.057 85.4534 137.081 85.2176 137.089C84.7801 137.107 84.3966 137.048 84.0671 136.915C83.7403 136.781 83.4861 136.574 83.3043 136.293C83.1224 136.011 83.033 135.656 83.0358 135.227V128.886ZM90.1317 137.124C89.7141 137.124 89.3419 137.051 89.0152 136.906C88.6885 136.759 88.43 136.541 88.2396 136.254C88.0521 135.964 87.9584 135.604 87.9584 135.172C87.9584 134.808 88.0251 134.503 88.1587 134.256C88.2922 134.009 88.474 133.81 88.7041 133.659C88.9342 133.509 89.1956 133.395 89.4882 133.318C89.7837 133.241 90.0933 133.188 90.4172 133.156C90.7979 133.116 91.1047 133.08 91.3376 133.045C91.5706 133.009 91.7396 132.955 91.8447 132.884C91.9499 132.812 92.0024 132.707 92.0024 132.568V132.543C92.0024 132.273 91.9172 132.064 91.7467 131.916C91.5791 131.768 91.3405 131.695 91.0308 131.695C90.7041 131.695 90.4442 131.767 90.251 131.912C90.0578 132.054 89.93 132.233 89.8675 132.449L88.1885 132.312C88.2737 131.915 88.4413 131.571 88.6913 131.281C88.9413 130.989 89.2638 130.764 89.6587 130.608C90.0564 130.449 90.5166 130.369 91.0394 130.369C91.403 130.369 91.751 130.412 92.0834 130.497C92.4186 130.582 92.7155 130.714 92.974 130.893C93.2354 131.072 93.4413 131.303 93.5919 131.584C93.7425 131.862 93.8178 132.196 93.8178 132.585V137H92.0962V136.092H92.045C91.9399 136.297 91.7993 136.477 91.6232 136.634C91.447 136.787 91.2354 136.908 90.9882 136.996C90.7411 137.081 90.4555 137.124 90.1317 137.124ZM90.6516 135.871C90.9186 135.871 91.1544 135.818 91.359 135.713C91.5635 135.605 91.724 135.46 91.8405 135.278C91.957 135.097 92.0152 134.891 92.0152 134.661V133.966C91.9584 134.003 91.8803 134.037 91.7808 134.068C91.6842 134.097 91.5749 134.124 91.4527 134.149C91.3305 134.172 91.2084 134.193 91.0862 134.213C90.9641 134.23 90.8533 134.246 90.7538 134.26C90.5408 134.291 90.3547 134.341 90.1956 134.409C90.0365 134.477 89.9129 134.57 89.8249 134.686C89.7368 134.8 89.6928 134.942 89.6928 135.112C89.6928 135.359 89.7822 135.548 89.9612 135.679C90.143 135.807 90.3732 135.871 90.6516 135.871ZM101.672 132.321L100.01 132.423C99.9818 132.281 99.9207 132.153 99.827 132.04C99.7332 131.923 99.6097 131.831 99.4563 131.763C99.3057 131.692 99.1253 131.656 98.9151 131.656C98.6338 131.656 98.3966 131.716 98.2034 131.835C98.0102 131.952 97.9136 132.108 97.9136 132.304C97.9136 132.46 97.9761 132.592 98.1011 132.7C98.2261 132.808 98.4406 132.895 98.7446 132.96L99.9293 133.199C100.566 133.33 101.04 133.54 101.353 133.83C101.665 134.119 101.821 134.5 101.821 134.972C101.821 135.401 101.695 135.777 101.442 136.101C101.192 136.425 100.848 136.678 100.411 136.859C99.9761 137.038 99.4747 137.128 98.9065 137.128C98.0401 137.128 97.3497 136.947 96.8355 136.587C96.3242 136.223 96.0244 135.729 95.9364 135.104L97.7219 135.01C97.7759 135.274 97.9065 135.476 98.1139 135.615C98.3213 135.751 98.5869 135.82 98.9108 135.82C99.229 135.82 99.4847 135.759 99.6778 135.636C99.8739 135.511 99.9733 135.351 99.9761 135.155C99.9733 134.99 99.9037 134.855 99.7673 134.75C99.631 134.642 99.4207 134.56 99.1367 134.503L98.0031 134.277C97.3639 134.149 96.8881 133.928 96.5756 133.612C96.2659 133.297 96.1111 132.895 96.1111 132.406C96.1111 131.986 96.2247 131.624 96.452 131.32C96.6821 131.016 97.0045 130.781 97.4193 130.616C97.8369 130.452 98.3256 130.369 98.8852 130.369C99.7119 130.369 100.363 130.544 100.837 130.893C101.314 131.243 101.593 131.719 101.672 132.321Z" fill="#474747"/>
<defs>
<filter id="filter0_d_332_1707" x="-2.1223" y="0.417267" width="136.273" height="136.273" filterUnits="userSpaceOnUse" color-interpolation-filters="sRGB">
<feFlood flood-opacity="0" result="BackgroundImageFix"/>
<feColorMatrix in="SourceAlpha" type="matrix" values="0 0 0 0 0 0 0 0 0 0 0 0 0 0 0 0 0 0 127 0" result="hardAlpha"/>
<feOffset dy="3.53957"/>
<feGaussianBlur stdDeviation="11.0612"/>
<feComposite in2="hardAlpha" operator="out"/>
<feColorMatrix type="matrix" values="0 0 0 0 0 0 0 0 0 0 0 0 0 0 0 0 0 0 0.05 0"/>
<feBlend mode="normal" in2="BackgroundImageFix" result="effect1_dropShadow_332_1707"/>
<feBlend mode="normal" in="SourceGraphic" in2="effect1_dropShadow_332_1707" result="shape"/>
</filter>
<clipPath id="clip0_332_1707">
<rect width="56.6331" height="56.6331" fill="white" transform="translate(37.6978 36.6978)"/>
</clipPath>
</defs>
</svg>
